<svg xmlns="http://www.w3.org/2000/svg" width="17.851" height="19.68" viewBox="0 0 17.851 19.68">
  <g id="noun_personal_finance_1042848" data-name="noun_personal finance_1042848" transform="translate(163.1 -253.018)">
    <g id="Group_280" data-name="Group 280" transform="translate(-163.1 253.018)">
      <g id="Group_269" data-name="Group 269" transform="translate(3.639 0)">
        <path id="Path_804" data-name="Path 804" d="M292.566,75.433a6.318,6.318,0,0,1-.329,1.92,3.979,3.979,0,0,0-3.364,3.93v.052a2.95,2.95,0,0,1-.94.158c-2.56,0-4.633-3.5-4.633-6.06a4.633,4.633,0,0,1,9.266,0Z" transform="translate(-282.995 -70.504)" fill="#717782"/>
        <g id="Group_268" data-name="Group 268" transform="translate(0 0)">
          <path id="Path_805" data-name="Path 805" d="M278.475,62.031a6.081,6.081,0,0,1-.318,1.84l.212-.212a4.278,4.278,0,0,0-3.587,4.274l.223-.292a2.718,2.718,0,0,1-.739.145,2.513,2.513,0,0,1-.285,0c-.039,0-.076,0-.112-.009l-.076-.009c.054.006.009,0-.019,0a3.027,3.027,0,0,1-.478-.119q-.114-.039-.227-.084c.063.026-.054-.026-.069-.032-.039-.017-.078-.037-.117-.056a3.935,3.935,0,0,1-.45-.27c-.037-.026-.073-.052-.108-.078l-.043-.032c-.069-.052.028.022-.013-.011-.076-.058-.149-.121-.221-.184a5.994,5.994,0,0,1-.75-.8l-.024-.03-.035-.045-.084-.117c-.056-.08-.11-.16-.164-.242-.106-.164-.208-.333-.3-.5s-.182-.348-.264-.528-.119-.272-.192-.469a7.4,7.4,0,0,1-.313-1.1c-.017-.082-.03-.162-.043-.244-.006-.045-.013-.091-.019-.134.009.063,0,0,0-.013,0-.03-.006-.063-.011-.093-.017-.164-.028-.331-.03-.5a4.944,4.944,0,0,1,.03-.592c0,.006.011-.091.006-.048a.479.479,0,0,0,.007-.048c.007-.048.015-.1.026-.145.017-.1.039-.19.063-.285a4.508,4.508,0,0,1,.177-.549c.006-.017.015-.035.022-.054.035-.084-.013.03.009-.019l.052-.117c.043-.091.086-.179.136-.266a4.719,4.719,0,0,1,.294-.467l.084-.115c-.03.039,0,0,0-.006l.054-.067c.061-.074.121-.143.186-.212a4.342,4.342,0,0,1,.409-.389c.032-.028.065-.054.1-.08.011-.009.058-.045.017-.013l.045-.035c.08-.058.16-.117.244-.171a4.241,4.241,0,0,1,.482-.272c.043-.022.086-.041.13-.061l.052-.024c.086-.039-.054.022.032-.015s.179-.069.27-.1a4.589,4.589,0,0,1,.562-.151c.086-.017.173-.032.262-.045-.054.009.009,0,.022,0l.073-.009c.054-.006.11-.011.164-.013a4.48,4.48,0,0,1,.59,0q.149.01.3.026c.009,0,.061.009.009,0l.073.011c.054.009.106.017.16.028a4.57,4.57,0,0,1,.562.147c.082.028.164.056.244.089l.067.026.019.009.143.065a5.019,5.019,0,0,1,.484.268c.08.05.158.1.234.16l.045.032s.069.052.037.028.041.032.037.028c.022.017.043.035.065.054a4.967,4.967,0,0,1,.411.387c.058.063.115.125.169.19.03.037.061.074.089.11s.013.015,0,.006c.019.026.039.052.058.08a4.976,4.976,0,0,1,.3.465c.048.082.091.166.132.253.019.039.037.078.054.117.011.022.019.043.028.065-.024-.054.013.03.013.035a4.806,4.806,0,0,1,.182.549c.022.084.041.171.058.255.009.048.019.1.026.145a.542.542,0,0,1,.009.058c0,.019.007.039.009.058q-.007-.039,0-.006a3.8,3.8,0,0,1,.043.586.3.3,0,0,0,.605,0,4.936,4.936,0,0,0-9.839-.571,5.926,5.926,0,0,0,.229,2.326,8.124,8.124,0,0,0,1.027,2.229c.845,1.276,2.212,2.486,3.844,2.369a3.334,3.334,0,0,0,.822-.162.313.313,0,0,0,.223-.292,4.325,4.325,0,0,1,.03-.556c.007-.056-.013.071,0-.024a.534.534,0,0,0,.009-.058c.006-.045.015-.089.024-.132.019-.093.041-.184.067-.275s.05-.169.08-.253c.013-.037.026-.074.041-.11a.621.621,0,0,1,.028-.067c.009-.019.006-.017,0,0,.006-.013.011-.026.017-.041a3.994,3.994,0,0,1,.251-.476c.043-.069.089-.138.136-.205.069-.1.063-.089.136-.179a4.124,4.124,0,0,1,.365-.387c.063-.058.13-.115.2-.171l.045-.037c.043-.035-.056.041.019-.015l.117-.084a3.89,3.89,0,0,1,.448-.268c.048-.024.1-.048.145-.069.022-.011.043-.019.067-.03.05-.022-.009,0,.022-.009.1-.039.192-.074.29-.106a4.208,4.208,0,0,1,.608-.145.3.3,0,0,0,.212-.212,6.624,6.624,0,0,0,.339-2,.308.308,0,0,0-.3-.3A.313.313,0,0,0,278.475,62.031Z" transform="translate(-269.208 -57.102)" fill="#717782"/>
        </g>
      </g>
      <g id="Group_271" data-name="Group 271" transform="translate(0 11.523)">
        <path id="Path_806" data-name="Path 806" d="M131.539,609.227v3.3H115v-3.3A4.228,4.228,0,0,1,119.235,605h.99l3.057,3.809,1.848-2.328a3.976,3.976,0,0,0,5.71.415A4.207,4.207,0,0,1,131.539,609.227Z" transform="translate(-114.695 -604.677)" fill="#717782"/>
        <g id="Group_270" data-name="Group 270" transform="translate(0 0)">
          <path id="Path_807" data-name="Path 807" d="M117.445,594.627v3.3l.3-.3H101.877c-.214,0-.43-.009-.646,0H101.2l.3.3v-3.3c0-.125.006-.253.017-.378,0-.03.006-.06.009-.089a.4.4,0,0,0,.007-.063c0,.022.006-.048.009-.063.006-.035.011-.067.017-.1a4.256,4.256,0,0,1,.2-.713c.011-.026.022-.054.03-.08s.011-.026.015-.039c-.019.048,0,0,0-.007.026-.056.05-.112.078-.169.052-.106.108-.212.171-.314s.132-.207.2-.309c.017-.024.035-.045.05-.069a.246.246,0,0,1,.022-.028c.039-.048.078-.1.117-.141a4.194,4.194,0,0,1,.517-.5l.067-.054c-.039.032.028-.022.041-.03.05-.037.1-.071.151-.106.1-.067.2-.128.3-.186a3.677,3.677,0,0,1,.333-.167l.056-.024c-.019.009.043-.017.056-.022.058-.024.117-.043.175-.065a4.371,4.371,0,0,1,.724-.177l.043-.006c-.052.006,0,0,.009,0l.089-.011c.065-.007.13-.011.195-.015.08,0,.162-.006.242-.006h.975l-.214-.089,1.038,1.295q.82,1.022,1.639,2.045c.128.158.253.316.38.476a.3.3,0,0,0,.428,0q.807-1.015,1.615-2.032c.078-.1.156-.195.233-.294h-.428a4.308,4.308,0,0,0,4.83,1.228,4.459,4.459,0,0,0,1.31-.811l-.476-.061a3.89,3.89,0,0,1,.664,2.173.3.3,0,0,0,.605,0,4.584,4.584,0,0,0-.739-2.484.308.308,0,0,0-.476-.061,3.673,3.673,0,0,1-4.324.409,3.531,3.531,0,0,1-.5-.352,4.043,4.043,0,0,1-.467-.476.3.3,0,0,0-.428,0q-.807,1.015-1.615,2.032c-.078.1-.156.195-.233.294h.428l-1.557-1.941-1.044-1.3-.342-.426c-.1-.117-.156-.225-.331-.236-.223-.011-.45,0-.675,0a7.018,7.018,0,0,0-.826.03,4.669,4.669,0,0,0-2.361,1,4.552,4.552,0,0,0-1.431,2.067,5.188,5.188,0,0,0-.236,1.689v3.061a.306.306,0,0,0,.3.3h15.871c.214,0,.43,0,.646,0h.028a.306.306,0,0,0,.3-.3v-3.3a.306.306,0,0,0-.3-.3A.3.3,0,0,0,117.445,594.627Z" transform="translate(-100.9 -590.078)" fill="#717782"/>
        </g>
      </g>
      <g id="Group_273" data-name="Group 273" transform="translate(12.104 8.812)">
        <g id="Group_272" data-name="Group 272" transform="translate(0 0)">
          <path id="Path_808" data-name="Path 808" d="M661.165,468.637h1.163a1.227,1.227,0,0,0,.9-.344,1.178,1.178,0,0,0,.272-1.228,1.19,1.19,0,0,0-1.059-.774c-.1-.006-.2,0-.3,0h-.173l-.058,0c-.084,0,.058.019-.015,0-.026-.009-.158-.061-.071-.017l-.1-.054c-.056-.032,0,0,.009.011l-.052-.045c-.017-.015-.032-.035-.048-.05-.052-.054.03.058-.009-.013-.017-.032-.037-.065-.054-.1.045.08,0-.026-.013-.056s-.03-.086,0,0a.269.269,0,0,1,0-.058v-.061a.536.536,0,0,1,0-.058.3.3,0,0,0,0,.043c-.013-.028.03-.1.035-.123.006-.048-.041.071,0,0,.009-.015.017-.032.028-.05s.019-.03.03-.048c-.043.071-.017.019,0,0l.039-.039c.009-.009.082-.063.037-.032s.028-.015.03-.017.032-.017.05-.028c.058-.032,0,0-.013,0l.067-.022a.533.533,0,0,0,.056-.013c.048-.019-.089,0,0,0l.065,0c.409-.007.815,0,1.224,0a.378.378,0,0,0,0-.757H662.03a1.226,1.226,0,0,0-.895.344,1.178,1.178,0,0,0-.272,1.228,1.19,1.19,0,0,0,1.059.774c.1.007.2,0,.3,0h.173l.058,0c.084,0-.058-.019.015,0,.026.009.158.061.071.017l.1.054c.056.032,0,0-.009-.011l.052.045c.017.015.032.035.048.05.052.054-.03-.058.009.013.017.032.037.065.054.1-.045-.08,0,.026.013.056s.03.086,0,0a.265.265,0,0,1,0,.058v.061a.523.523,0,0,1,0,.058.288.288,0,0,0,0-.043c.013.028-.03.1-.035.123-.006.048.041-.071,0,0-.009.015-.017.032-.028.05s-.019.03-.03.048c.043-.071.017-.019,0,0l-.039.039c-.009.009-.082.063-.037.032s-.028.015-.03.017-.032.017-.05.028c-.058.032,0,0,.013,0l-.067.022a.519.519,0,0,0-.056.013c-.048.019.089,0,0,0l-.065,0c-.409.006-.815,0-1.224,0a.378.378,0,0,0,0,.757Z" transform="translate(-660.787 -464.7)" fill="#717782"/>
        </g>
      </g>
      <g id="Group_275" data-name="Group 275" transform="translate(13.123 8.016)">
        <g id="Group_274" data-name="Group 274" transform="translate(0 0)">
          <path id="Path_809" data-name="Path 809" d="M708.657,429.061v-.8a.378.378,0,1,0-.757,0v.8a.382.382,0,0,0,.378.378.387.387,0,0,0,.378-.378Z" transform="translate(-707.9 -427.887)" fill="#717782"/>
        </g>
      </g>
      <g id="Group_277" data-name="Group 277" transform="translate(13.123 11.992)">
        <g id="Group_276" data-name="Group 276" transform="translate(0)">
          <path id="Path_810" data-name="Path 810" d="M708.657,612.961v-.8a.378.378,0,0,0-.757,0v.8a.381.381,0,0,0,.378.378.386.386,0,0,0,.378-.378Z" transform="translate(-707.9 -611.787)" fill="#717782"/>
        </g>
      </g>
      <g id="Group_279" data-name="Group 279" transform="translate(9.141 6.429)">
        <g id="Group_278" data-name="Group 278" transform="translate(0 0)">
          <path id="Path_811" data-name="Path 811" d="M531.651,358.82c0,.106,0,.21-.013.313,0,.058-.011.115-.017.173,0-.015.011-.073,0,0,0,.035-.011.067-.017.1a4.154,4.154,0,0,1-.16.62l-.045.125c-.011.026-.022.052-.03.078-.024.061.037-.08-.006.017s-.084.179-.132.266a3.992,3.992,0,0,1-.337.523c.043-.056.006-.011,0,0s-.035.043-.052.063c-.032.037-.063.076-.1.11-.074.08-.149.16-.229.233s-.149.134-.227.2c-.017.015-.035.028-.052.041.052-.041.007,0,0,0-.05.037-.1.073-.151.108a4.021,4.021,0,0,1-.549.309c-.026.013-.052.024-.078.035-.06.028.082-.03-.02.009l-.13.05q-.162.058-.331.1c-.1.026-.2.05-.307.069l-.069.013-.054.009c.045-.007-.028,0-.039,0l-.106.011a3.9,3.9,0,0,1-.655,0c-.056,0-.115-.011-.171-.017.078.009-.043-.007-.069-.011-.11-.017-.221-.041-.331-.069s-.192-.054-.287-.084c-.048-.015-.1-.032-.141-.05l-.078-.03c-.076-.03.05.024-.03-.013a4.226,4.226,0,0,1-.534-.288c-.082-.054-.162-.11-.242-.169-.052-.037.067.056-.013-.011-.017-.013-.035-.028-.05-.041-.041-.035-.082-.069-.123-.106a3.984,3.984,0,0,1-.428-.448c-.015-.017-.028-.037-.043-.054.041.05,0,0,0,0-.035-.045-.067-.093-.1-.141-.063-.091-.119-.184-.173-.277s-.1-.182-.143-.277c-.013-.026-.024-.052-.037-.08,0-.011-.028-.067,0-.006-.022-.054-.043-.108-.063-.162a3.93,3.93,0,0,1-.173-.649l-.013-.071s-.015-.112-.009-.056-.007-.063-.007-.058l-.006-.071c-.011-.115-.015-.229-.015-.344,0-.093,0-.186.009-.277,0-.041.006-.082.011-.121s0-.05.009-.076l.006-.045c-.006.045-.006.054,0,.026a5.084,5.084,0,0,1,.119-.538c.026-.084.054-.169.084-.251.015-.041.032-.082.048-.123.022-.056-.039.082,0,0,.013-.026.024-.054.037-.08a3.806,3.806,0,0,1,.259-.469c.048-.074.1-.145.147-.214.013-.017.054-.071,0,0,.011-.015.024-.03.037-.045.03-.037.06-.073.093-.11a4.092,4.092,0,0,1,.385-.389c.032-.028.065-.056.1-.084.017-.015.123-.1.047-.039.078-.056.156-.115.236-.166a4.07,4.07,0,0,1,.454-.255c.043-.022.089-.041.132-.061-.076.035.015-.007.045-.017.091-.035.184-.067.277-.1a3.386,3.386,0,0,1,1.2-.158c.091,0,.179.009.27.017.024,0,.162.022.063.007l.145.024a3.827,3.827,0,0,1,.536.136c.082.028.162.058.244.089.017.006.065.03-.011,0l.052.024c.048.022.1.043.143.067a3.657,3.657,0,0,1,.454.266c.039.026.078.054.117.082s.1.078.037.026c.073.058.147.119.216.182a4.23,4.23,0,0,1,.374.387c.024.028.048.058.071.089.058.071-.032-.045,0,0,.013.019.028.037.043.056.052.074.1.147.151.223a4.329,4.329,0,0,1,.251.463c.009.017.015.035.024.052.039.084-.019-.054,0,0,.015.041.032.08.048.121.035.091.065.182.091.275a4.927,4.927,0,0,1,.115.53c.011.061-.011-.1,0,0l.007.058c0,.045.009.089.011.134,0,.1,0,.192,0,.288a.378.378,0,0,0,.757,0,4.394,4.394,0,0,0-2.434-3.909,4.46,4.46,0,0,0-2.666-.383,4.339,4.339,0,0,0-2.171,1.055,4.356,4.356,0,0,0,.618,6.94,4.332,4.332,0,0,0,2.692.633,4.39,4.39,0,0,0,2.622-1.2,4.325,4.325,0,0,0,1.271-2.4,4.964,4.964,0,0,0,.065-.739.377.377,0,1,0-.755,0Z" transform="translate(-523.698 -354.469)" fill="#717782"/>
        </g>
      </g>
    </g>
  </g>
</svg>
